<svg width="19" height="19" viewBox="0 0 19 19" fill="none" xmlns="http://www.w3.org/2000/svg">
<path d="M2.15341 12.2074L9.91096 4.44987L14.4343 8.97322L6.67675 16.7308L1.02257 17.8616L2.15341 12.2074Z" fill="#095AE9"/>
<path d="M15.6557 7.75185L17.2564 6.15108C17.2711 6.13645 17.2856 6.12168 17.2998 6.10685C18.5054 4.85463 18.4909 2.86218 17.2564 1.62773C16.1635 0.534782 14.4764 0.398163 13.2349 1.21788C13.0797 1.32034 12.9314 1.43775 12.7922 1.5701C12.7723 1.58899 12.7526 1.6082 12.7331 1.6277" fill="#095AE9"/>
<path d="M0.690918 11.2272V4.7506C0.690918 2.84271 2.23757 1.29605 4.14546 1.29605H10.6221L0.690918 11.2272Z" fill="#095AE9"/>
<path d="M1.26083 16.6702L2.15341 12.2074L9.91096 4.44987L14.4343 8.97322L6.67675 16.7308L2.20262 17.6256C1.82993 17.3717 1.50951 17.0467 1.26083 16.6702Z" fill="#095AE9"/>
<path d="M13.1218 1.29605L15.2 3.54151C17.1079 3.54151 14.4343 4.7506 17.4455 4.7506V5.94505C17.386 6.01577 17.323 6.08453 17.2564 6.15108L15.6557 7.75185L11.1323 3.22851L12.7331 1.6277C12.8557 1.50511 12.9858 1.39458 13.1218 1.29605Z" fill="#095AE9"/>
<path d="M17.4455 8.4048V14.7688C17.4455 16.6767 15.8988 18.2233 13.9909 18.2233H7.62693L17.4455 8.4048Z" fill="#095AE9"/>
</svg>
