<svg width="1440" height="49" viewBox="0 0 1440 49" fill="none" xmlns="http://www.w3.org/2000/svg">
<path d="M0 0H1440V48H0V0Z" fill="white"/>
<path d="M1440 48V47.5H0V48V48.5H1440V48Z" fill="#E5E7EB"/>
<g clip-path="url(#clip0_16404_31608)">
<path d="M33.372 23.2366L25.3701 21.0213V14.4193L35.0925 17.1113C36.477 17.4948 37.4345 18.7466 37.4345 20.1739C37.4345 22.2778 35.4128 23.8017 33.3713 23.2366H33.372Z" fill="#095AE9"/>
<path d="M33.372 23.4742L25.3701 25.6902V32.2921L35.0925 29.6002C36.477 29.2167 37.4345 27.9649 37.4345 26.5375C37.4345 24.4337 35.4128 22.9098 33.3713 23.4749L33.372 23.4742Z" fill="#095AE9"/>
<path d="M42.6306 17.112H47.354C49.5274 17.112 51.2697 18.6278 51.2697 20.4291C51.2697 21.5526 50.5332 22.6586 49.5274 22.9969C50.8569 23.2642 51.8443 24.4951 51.8443 26.0284C51.8443 28.0439 50.0483 29.5948 47.8926 29.5948H42.6299V17.112H42.6306ZM47.2289 22.1407C47.9831 22.1407 48.5761 21.5702 48.5761 20.8748C48.5761 20.1793 47.9831 19.6446 47.2289 19.6446H45.2895V22.1414H47.2289V22.1407ZM47.6601 27.0628C48.4863 27.0628 49.133 26.4207 49.133 25.6186C49.133 24.8165 48.4863 24.1562 47.6961 24.1562H45.2895V27.0628H47.6601Z" fill="#0B192D"/>
<path d="M61.3924 25.2256C61.3924 27.8291 59.3986 29.7729 56.8124 29.7729C54.2263 29.7729 52.2324 27.8291 52.2324 25.2256C52.2324 22.6221 54.2079 20.66 56.8124 20.66C59.4169 20.66 61.3924 22.6214 61.3924 25.2256ZM54.7105 25.2256C54.7105 26.4382 55.6088 27.3652 56.8117 27.3652C58.0147 27.3652 58.913 26.4382 58.913 25.2256C58.913 24.013 57.997 23.0677 56.8117 23.0677C55.6264 23.0677 54.7105 23.9772 54.7105 25.2256Z" fill="#0B192D"/>
<path d="M70.9334 25.2256C70.9334 27.8291 68.9396 29.7729 66.3534 29.7729C63.7673 29.7729 61.7734 27.8291 61.7734 25.2256C61.7734 22.6221 63.7489 20.66 66.3534 20.66C68.958 20.66 70.9334 22.6214 70.9334 25.2256ZM64.2515 25.2256C64.2515 26.4382 65.1498 27.3652 66.3528 27.3652C67.5557 27.3652 68.454 26.4382 68.454 25.2256C68.454 24.013 67.5381 23.0677 66.3528 23.0677C65.1675 23.0677 64.2515 23.9772 64.2515 25.2256Z" fill="#0B192D"/>
<path d="M77.1653 29.5947L73.9685 25.6713V29.5947H71.436V17.112H73.9685V24.4593L77.0218 20.839H80.1289L76.4649 25.0656L80.4165 29.5954H77.1653V29.5947Z" fill="#0B192D"/>
<path d="M83.5897 18.1105C83.5897 18.9484 82.8892 19.6439 82.0453 19.6439C81.2014 19.6439 80.501 18.9484 80.501 18.1105C80.501 17.2726 81.2014 16.5948 82.0453 16.5948C82.8892 16.5948 83.5897 17.2902 83.5897 18.1105ZM83.3204 20.839V29.5947H80.788V20.839H83.3204Z" fill="#0B192D"/>
<path d="M93.543 25.208C93.543 27.7224 91.7286 29.7736 89.4478 29.7736C88.2265 29.7736 87.2744 29.274 86.6638 28.3645V32.4838H84.1313V20.8389H86.6638V22.0691C87.2744 21.1596 88.2265 20.66 89.4478 20.66C91.7286 20.66 93.543 22.693 93.543 25.2074V25.208ZM91.0643 25.208C91.0643 24.013 90.0945 23.0502 88.8732 23.0502C87.6519 23.0502 86.6638 23.9954 86.6638 25.208C86.6638 26.4207 87.6335 27.3659 88.8732 27.3659C90.1129 27.3659 91.0643 26.4207 91.0643 25.208Z" fill="#0B192D"/>
<path d="M96.9569 18.1105C96.9569 18.9484 96.2564 19.6439 95.4125 19.6439C94.5686 19.6439 93.8682 18.9484 93.8682 18.1105C93.8682 17.2726 94.5686 16.5948 95.4125 16.5948C96.2564 16.5948 96.9569 17.2902 96.9569 18.1105ZM96.6876 20.839V29.5947H94.1551V20.839H96.6876Z" fill="#0B192D"/>
</g>
<defs>
<clipPath id="clip0_16404_31608">
<rect width="71.6186" height="18.0645" fill="white" transform="translate(25.3701 14.4193)"/>
</clipPath>
</defs>
</svg>
