<svg width="16" height="16" viewBox="0 0 16 16" fill="none" xmlns="http://www.w3.org/2000/svg">
<path fill-rule="evenodd" clip-rule="evenodd" d="M7.99984 0.666687C3.94975 0.666687 0.666504 3.94993 0.666504 8.00002C0.666504 12.0501 3.94975 15.3334 7.99984 15.3334C12.0499 15.3334 15.3332 12.0501 15.3332 8.00002C15.3332 3.94993 12.0499 0.666687 7.99984 0.666687ZM11.4712 6.47142C11.7316 6.21108 11.7316 5.78897 11.4712 5.52862C11.2109 5.26827 10.7888 5.26827 10.5284 5.52862L6.99984 9.05721L5.47124 7.52862C5.21089 7.26827 4.78878 7.26827 4.52843 7.52862C4.26808 7.78897 4.26808 8.21108 4.52843 8.47143L6.52843 10.4714C6.78878 10.7318 7.21089 10.7318 7.47124 10.4714L11.4712 6.47142Z" fill="white"/>
</svg>
