<svg width="72" height="72" viewBox="0 0 72 72" fill="none" xmlns="http://www.w3.org/2000/svg">
<path fill-rule="evenodd" clip-rule="evenodd" d="M36 3C17.7746 3 3 17.7746 3 36C3 54.2254 17.7746 69 36 69C54.2254 69 69 54.2254 69 36C69 17.7746 54.2254 3 36 3ZM51.6213 29.1213C52.7929 27.9497 52.7929 26.0503 51.6213 24.8787C50.4497 23.7071 48.5503 23.7071 47.3787 24.8787L31.5 40.7574L24.6213 33.8787C23.4497 32.7071 21.5503 32.7071 20.3787 33.8787C19.2071 35.0503 19.2071 36.9497 20.3787 38.1213L29.3787 47.1213C30.5503 48.2929 32.4497 48.2929 33.6213 47.1213L51.6213 29.1213Z" fill="#12B76A"/>
</svg>
