<svg width="82" height="28" viewBox="0 0 82 28" fill="none" xmlns="http://www.w3.org/2000/svg">
<g clip-path="url(#clip0_16890_7939)">
<path d="M13.372 14.2366L5.37012 12.0213V5.41934L15.0925 8.1113C16.477 8.4948 17.4345 9.74659 17.4345 11.1739C17.4345 13.2778 15.4128 14.8017 13.3713 14.2366H13.372Z" fill="#095AE9"/>
<path d="M13.372 14.4742L5.37012 16.6902V23.2921L15.0925 20.6002C16.477 20.2167 17.4345 18.9649 17.4345 17.5375C17.4345 15.4337 15.4128 13.9098 13.3713 14.4749L13.372 14.4742Z" fill="#095AE9"/>
<path d="M22.6306 8.11197H27.354C29.5274 8.11197 31.2697 9.62775 31.2697 11.4291C31.2697 12.5526 30.5332 13.6586 29.5274 13.9969C30.8569 14.2642 31.8443 15.4951 31.8443 17.0284C31.8443 19.0439 30.0483 20.5948 27.8926 20.5948H22.6299V8.11197H22.6306ZM27.2289 13.1407C27.9831 13.1407 28.5761 12.5702 28.5761 11.8748C28.5761 11.1793 27.9831 10.6446 27.2289 10.6446H25.2895V13.1414H27.2289V13.1407ZM27.6601 18.0628C28.4863 18.0628 29.133 17.4207 29.133 16.6186C29.133 15.8165 28.4863 15.1562 27.6961 15.1562H25.2895V18.0628H27.6601Z" fill="#0B192D"/>
<path d="M41.3924 16.2256C41.3924 18.8291 39.3986 20.7729 36.8124 20.7729C34.2263 20.7729 32.2324 18.8291 32.2324 16.2256C32.2324 13.6221 34.2079 11.66 36.8124 11.66C39.4169 11.66 41.3924 13.6214 41.3924 16.2256ZM34.7105 16.2256C34.7105 17.4382 35.6088 18.3652 36.8117 18.3652C38.0147 18.3652 38.913 17.4382 38.913 16.2256C38.913 15.013 37.997 14.0677 36.8117 14.0677C35.6264 14.0677 34.7105 14.9772 34.7105 16.2256Z" fill="#0B192D"/>
<path d="M50.9334 16.2256C50.9334 18.8291 48.9396 20.7729 46.3534 20.7729C43.7673 20.7729 41.7734 18.8291 41.7734 16.2256C41.7734 13.6221 43.7489 11.66 46.3534 11.66C48.958 11.66 50.9334 13.6214 50.9334 16.2256ZM44.2515 16.2256C44.2515 17.4382 45.1498 18.3652 46.3528 18.3652C47.5557 18.3652 48.454 17.4382 48.454 16.2256C48.454 15.013 47.5381 14.0677 46.3528 14.0677C45.1675 14.0677 44.2515 14.9772 44.2515 16.2256Z" fill="#0B192D"/>
<path d="M57.1653 20.5947L53.9685 16.6713V20.5947H51.436V8.11197H53.9685V15.4593L57.0218 11.839H60.1289L56.4649 16.0656L60.4165 20.5954H57.1653V20.5947Z" fill="#0B192D"/>
<path d="M63.5897 9.11054C63.5897 9.94844 62.8892 10.6439 62.0453 10.6439C61.2014 10.6439 60.501 9.94844 60.501 9.11054C60.501 8.27264 61.2014 7.59476 62.0453 7.59476C62.8892 7.59476 63.5897 8.2902 63.5897 9.11054ZM63.3204 11.839V20.5947H60.788V11.839H63.3204Z" fill="#0B192D"/>
<path d="M73.543 16.208C73.543 18.7224 71.7286 20.7736 69.4478 20.7736C68.2265 20.7736 67.2744 20.274 66.6638 19.3645V23.4838H64.1313V11.8389H66.6638V13.0691C67.2744 12.1596 68.2265 11.66 69.4478 11.66C71.7286 11.66 73.543 13.693 73.543 16.2074V16.208ZM71.0643 16.208C71.0643 15.013 70.0945 14.0502 68.8732 14.0502C67.6519 14.0502 66.6638 14.9954 66.6638 16.208C66.6638 17.4207 67.6335 18.3659 68.8732 18.3659C70.1129 18.3659 71.0643 17.4207 71.0643 16.208Z" fill="#0B192D"/>
<path d="M76.9569 9.11054C76.9569 9.94844 76.2564 10.6439 75.4125 10.6439C74.5686 10.6439 73.8682 9.94844 73.8682 9.11054C73.8682 8.27264 74.5686 7.59476 75.4125 7.59476C76.2564 7.59476 76.9569 8.2902 76.9569 9.11054ZM76.6876 11.839V20.5947H74.1551V11.839H76.6876Z" fill="#0B192D"/>
</g>
<defs>
<clipPath id="clip0_16890_7939">
<rect width="71.6186" height="18.0645" fill="white" transform="translate(5.37012 5.41934)"/>
</clipPath>
</defs>
</svg>
