<svg width="16" height="16" viewBox="0 0 16 16" fill="none" xmlns="http://www.w3.org/2000/svg">
<path fill-rule="evenodd" clip-rule="evenodd" d="M10.862 1.52855C11.8587 0.531823 13.4747 0.531825 14.4714 1.52855C15.4682 2.52528 15.4682 4.1413 14.4714 5.13803L6.92705 12.6824C6.77147 12.8381 6.65373 12.9559 6.52075 13.0591C6.40321 13.1503 6.27823 13.2315 6.14713 13.3019C5.99883 13.3815 5.84342 13.4412 5.63797 13.5202L5.55452 13.5522C5.53364 13.5603 5.51292 13.5683 5.49255 13.5761L1.90601 14.9556C1.66011 15.0501 1.38158 14.991 1.19528 14.8047C1.06793 14.6774 1.00001 14.5069 1 14.3333C0.99999 14.2529 1.01453 14.1718 1.04446 14.094L2.4798 10.3621C2.55877 10.1566 2.6185 10.0012 2.69812 9.85284C2.76849 9.72175 2.84971 9.59677 2.94092 9.47922C3.04412 9.34624 3.16189 9.22853 3.31757 9.07292L10.862 1.52855ZM3.58733 11.1968L2.82738 13.1726L4.80321 12.4127L3.58733 11.1968Z" fill="white"/>
<path d="M8.66667 13.3334H14C14.3682 13.3334 14.6667 13.6319 14.6667 14.0001C14.6667 14.3683 14.3682 14.6667 14 14.6667H8.66667C8.29848 14.6667 8 14.3683 8 14.0001C8 13.6319 8.29848 13.3334 8.66667 13.3334Z" fill="white"/>
</svg>
